<svg width="16" height="16" viewBox="0 0 16 16" fill="none" xmlns="http://www.w3.org/2000/svg">
<rect x="2" y="4" width="2" height="2" fill="#7F7F7F"/>
<rect x="6" y="12" width="2" height="2" fill="#7F7F7F"/>
<rect x="8" y="12" width="2" height="2" fill="#7F7F7F"/>
<rect x="8" y="10" width="2" height="2" fill="#7F7F7F"/>
<rect x="8" y="2" width="2" height="2" fill="#7F7F7F"/>
<rect x="6" y="2" width="2" height="2" fill="#7F7F7F"/>
<rect x="6" y="4" width="2" height="2" fill="#7F7F7F"/>
<rect x="2" y="12" width="2" height="2" fill="#7F7F7F"/>
<rect x="12" y="2" width="2" height="2" fill="#7F7F7F"/>
<rect x="2" y="8" width="2" height="2" fill="#7F7F7F"/>
<rect x="12" y="12" width="2" height="2" fill="#7F7F7F"/>
<rect x="12" y="10" width="2" height="2" fill="#7F7F7F"/>
<rect x="12" y="8" width="2" height="2" fill="#7F7F7F"/>
<rect x="12" y="6" width="2" height="2" fill="#7F7F7F"/>
<rect x="2" y="6" width="2" height="2" fill="#7F7F7F"/>
<rect x="2" y="2" width="2" height="2" fill="#7F7F7F"/>
</svg>
